<svg id="_x33_0" enable-background="new 0 0 62 62" height="512" viewBox="0 0 62 62" width="512" xmlns="http://www.w3.org/2000/svg" xmlns:xlink="http://www.w3.org/1999/xlink"><linearGradient id="SVGID_1_" gradientUnits="userSpaceOnUse" x1="31" x2="31" y1="62" y2="0"><stop offset="0" stop-color="#9f2fff"/><stop offset="1" stop-color="#0bb1d3"/></linearGradient><path d="m14 25c0-1.654-1.346-3-3-3s-3 1.346-3 3 1.346 3 3 3 3-1.346 3-3zm-3 1c-.552 0-1-.449-1-1s.448-1 1-1 1 .449 1 1-.448 1-1 1zm12-4c-1.654 0-3 1.346-3 3s1.346 3 3 3 3-1.346 3-3-1.346-3-3-3zm0 4c-.552 0-1-.449-1-1s.448-1 1-1 1 .449 1 1-.448 1-1 1zm-10.697 6.332c.539 2.16 2.471 3.668 4.697 3.668s4.158-1.508 4.697-3.668l.584-2.332h-10.562zm7.412-.332c-.367 1.186-1.462 2-2.715 2s-2.348-.814-2.715-2zm18.285 18c0 1.103.897 2 2 2h2c1.103 0 2-.897 2-2v-2h12v-2h-12v-2c0-1.103-.897-2-2-2h-2c-1.103 0-2 .897-2 2v2h-8v2h8zm2-6h2l.001 6h-2.001zm-2-12v-2h2v2zm6-2h2v2h-2zm6 2v-2h2v2zm-8-26h-6v-2h6zm0 4h-6v-2h6zm0 4h-6v-2h6zm12-8h-6v-2h6zm0 4h-6v-2h6zm0 4h-6v-2h6zm6-10h-2v-4h-9.764c-1.241 0-2.388.494-3.236 1.333-.848-.839-1.995-1.333-3.236-1.333h-9.764v10.175c-1.863-2.526-4.851-4.175-8.224-4.175h-11.534c-2.469 0-4.789-.961-6.535-2.707l-.862-.862-1.965 2.946c-1.884 2.826-2.88 6.115-2.88 9.513 0 2.193.413 4.336 1.227 6.369l.429 1.074c-.978.495-1.656 1.498-1.656 2.667 0 1.654 1.346 3 3 3h1.051c.242 3.152 1.603 5.993 3.698 8.118-3.264.593-5.749 3.45-5.749 6.882v8c0 3.86 3.141 7 7 7h19.22l.568 2.272c.254 1.018 1.164 1.728 2.212 1.728s1.958-.71 2.212-1.728l.568-2.272h19.22c3.859 0 7-3.14 7-7v-8c0-3.86-3.141-7-7-7h-26.641c2.032-2.112 3.353-4.904 3.59-8h1.051c1.302 0 2.402-.839 2.816-2h8.355c.413 1.164 1.525 2 2.829 2s2.416-.836 2.829-2h12.171c1.103 0 2-.897 2-2v-18c0-1.103-.897-2-2-2zm-11.764-2h7.764v18h-7.764c-.934 0-1.766-.499-2.236-1.294v-15.412c.47-.795 1.302-1.294 2.236-1.294zm-14.236 0h7.764c.924 0 1.762.476 2.236 1.256v15.487c-.474.781-1.312 1.257-2.236 1.257h-7.764zm-32 23c0-.551.448-1 1-1h1v2h-1c-.552 0-1-.449-1-1zm2 26v-8c0-2.757 2.243-5 5-5h1.104c.765.481 1.583.882 2.443 1.198l-.354 1.061c-3.156 1.45-5.326 4.557-5.574 8.042l-.485 6.785c-1.286-.906-2.134-2.396-2.134-4.086zm8.991-8.886 2.878 1.439-1.55 1.034-1.449-2.414c.04-.02.08-.04.121-.059zm8.018 0c.041.019.081.039.121.059l-1.449 2.414-1.55-1.034zm-4.009 3.088.788.525-.568 2.273h-.44l-.568-2.273zm-.117 4.798h.235l.75 6h-1.735zm2.132-.94.539-2.156.764.509 2.478-4.13c1.479 1.301 2.446 3.144 2.59 5.16l.54 7.557h-6.044zm.514-9.311.248.744-2.777 1.389-2.777-1.389.248-.744c.818.162 1.663.251 2.529.251s1.711-.089 2.529-.251zm-11.449 16.158.533-7.464c.144-2.015 1.112-3.859 2.59-5.16l2.478 4.13.764-.509.539 2.156-.867 6.94h-5.117c-.315 0-.621-.037-.92-.093zm49.92-12.907v8c0 2.757-2.243 5-5 5h-20.78l-.947 3.787c-.063.251-.482.251-.545 0l-.948-3.787h-1.85l-.55-7.7c-.248-3.484-2.418-6.591-5.574-8.042l-.354-1.061c.861-.315 1.678-.716 2.443-1.198h29.105c2.757.001 5 2.244 5 5.001zm-30-16c0 6.065-4.935 11-11 11s-11-4.935-11-11v-5.921c0-.829.521-1.582 1.298-1.873l4.415-1.656c1.345.998 2.971 1.609 4.693 1.71l9.711.571c1.056.064 1.883.94 1.883 1.998zm-1.766-9.164-9.711-.571c-2.397-.142-4.555-1.563-5.629-3.712l-1.789.895c.281.563.62 1.087 1.007 1.567l-3.517 1.319c-1.552.582-2.595 2.087-2.595 3.745v.921h-.323l-.593-1.484c-.72-1.796-1.084-3.689-1.084-5.626 0-3.001.88-5.907 2.544-8.403l.647-.971c1.992 1.609 4.455 2.484 7.051 2.484h11.534c4.535 0 8.224 3.689 8.224 8.224 0 1.052-.198 2.079-.589 3.055l-1.088 2.721h-.323v-.171c0-2.115-1.654-3.869-3.766-3.993zm4.766 8.164h-1v-2h1c.552 0 1 .449 1 1s-.448 1-1 1zm29-2h-14v1c0 .551-.448 1-1 1s-1-.449-1-1v-1h-10.184c-.26-.728-.789-1.322-1.472-1.667l.133-.333h9.287c1.241 0 2.388-.494 3.236-1.333.848.839 1.995 1.333 3.236 1.333h9.764v-16h2z" fill="url(#SVGID_1_)"/></svg>