<svg height="496pt" viewBox="0 0 496 496" width="496pt" xmlns="http://www.w3.org/2000/svg" xmlns:xlink="http://www.w3.org/1999/xlink"><linearGradient id="linear0" gradientUnits="userSpaceOnUse" x1="248" x2="248" y1="496" y2="0"><stop offset="0" stop-color="#9f2fff"/><stop offset="1" stop-color="#0bb1d3"/></linearGradient><path d="m464 0h-432c-17.648438 0-32 14.351562-32 32v320c0 17.648438 14.351562 32 32 32h120v34.585938l-80 32v45.414062h352v-45.414062l-80-32v-34.585938h120c17.648438 0 32-14.351562 32-32v-320c0-17.648438-14.351562-32-32-32zm-432 16h432c8.824219 0 16 7.175781 16 16v264h-116l-24 32h-324v-296c0-8.824219 7.175781-16 16-16zm302.464844 416 40 16h-252.929688l40-16zm-246.464844 48v-16h320v16zm376-112h-208v16h72v32h-160v-32h72v-16h-208c-8.824219 0-16-7.175781-16-16v-8h332l24-32h108v40c0 8.824219-7.175781 16-16 16zm-16-40h16v16h-16zm-32 0h16v16h-16zm-32 0h16v16h-16zm-299.367188-59.160156 19.367188 15.070312v28.089844h16v-28.089844l19.367188-15.0625c13.160156-10.238281 24.015624-22.566406 32.457031-36.28125 15.511719 10.097656 33.359375 15.433594 52.175781 15.433594 21.550781 0 41.390625-7.222656 57.433594-19.257812l51.253906 51.257812h131.3125v-16h-24v-120h-48v120h-16v-64h-48v52.6875l-34.566406-34.566406c14.6875-15.417969 24.300781-35.664063 26.167968-58.113282h16.398438v-8c0-61.761718-50.238281-112-112-112h-8v16.390626c-19.441406 1.59375-37.703125 8.929687-52.753906 21.273437-2.007813-2.582031-4.039063-5.160156-6.246094-7.617187l-45-50.015626-45 50.007813c-22.566406 25.074219-35 57.457031-35 91.191406 0 42.371094 19.183594 81.59375 52.632812 107.601563zm9.816407-12.625c-24.183594-18.816406-39.738281-45.503906-44.632813-75.085938l54.183594 54.183594v28.335938zm81.351562-99.328125-55.800781 55.800781v-41.375l49.3125-49.3125c3.855469 11.167969 6.054688 22.894531 6.488281 34.886719zm-71.800781 55.800781-55.800781-55.800781c.433593-11.992188 2.632812-23.71875 6.488281-34.886719l49.3125 49.3125zm25.550781 43.527344-9.550781 7.433594v-28.335938l54.183594-54.183594c-4.894532 29.582032-20.449219 56.277344-44.632813 75.085938zm60.097657-70.757813c6.953124 7.136719 16.105468 12.085938 26.351562 13.816407v32.292968c-13.183594-1.285156-25.632812-5.742187-36.609375-13.160156 4.816406-10.429688 8.21875-21.484375 10.257813-32.949219zm218.351562-25.457031h16v104h-16zm-48 56v48h-16v-48zm-128 15.59375v-32.320312c20.054688-3.386719 35.886719-19.226563 39.28125-39.28125h32.320312c-3.769531 37.742187-33.867187 67.839843-71.601562 71.601562zm0-175.265625c46.566406 3.855469 83.808594 41.113281 87.664062 87.671875h-87.664062zm22.863281 103.671875c-3.574219 13.769531-16 24-30.863281 24-17.648438 0-32-14.351562-32-32 0-14.871094 10.238281-27.289062 24-30.863281v38.863281zm-38.863281-87.609375v32.328125c-12 2.023438-22.488281 8.496094-29.710938 17.679688-3.28125-11.023438-7.90625-21.605469-13.875-31.496094 12.394532-10.488282 27.457032-16.917969 43.585938-18.511719zm-137.113281 8.363281 33.113281-36.792968 33.113281 36.792968c6.957031 7.734375 12.75 16.292969 17.445313 25.375l-42.558594 42.558594v-68.6875h-16v68.6875l-42.558594-42.558594c4.6875-9.089844 10.488282-17.640625 17.445313-25.375zm145.113281 183.246094v16h-56v-16zm16 0h56v16h-56zm-72 32h128v16h-128zm296-208h-120v-16h120zm-16 16h16v16h-16zm-32 16v-16h16v16zm-16 0h-56v-16h56zm0 0" fill="url(#linear0)"/></svg>