<svg id="Layer_5" enable-background="new 0 0 64 64" height="512" viewBox="0 0 64 64" width="512" xmlns="http://www.w3.org/2000/svg"><g><g><g><path d="m39 54v1c0 3.87-3.13 7-7 7s-7-3.13-7-7v-1z" fill="#aab2bd"/></g><g><path d="m41 50c1.1 0 2 .9 2 2 0 .55-.22 1.05-.59 1.41-.36.37-.86.59-1.41.59h-2-14-2c-1.1 0-2-.9-2-2 0-.55.22-1.05.59-1.41.36-.37.86-.59 1.41-.59z" fill="#ccd1d9"/></g><g><path d="m41 46c1.1 0 2 .9 2 2 0 .55-.22 1.05-.59 1.41-.36.37-.86.59-1.41.59h-18c-1.1 0-2-.9-2-2 0-.55.22-1.05.59-1.41.36-.37.86-.59 1.41-.59h1.95 5.05 4 5.05z" fill="#ccd1d9"/></g><g><circle cx="4" cy="28" fill="#ff826e" r="2"/></g><g><path d="m8 44c3.31 0 6 2.69 6 6s-2.69 6-6 6-6-2.69-6-6 2.69-6 6-6z" fill="#ff826e"/></g><g><circle cx="8" cy="8" fill="#ff826e" r="4"/></g><g><path d="m58 7c2.21 0 4 1.79 4 4s-1.79 4-4 4c-1.1 0-2.1-.45-2.83-1.17-.72-.73-1.17-1.73-1.17-2.83 0-2.21 1.79-4 4-4z" fill="#ff826e"/></g><g><circle cx="60" cy="28" fill="#ff826e" r="2"/></g><g><circle cx="32" cy="4" fill="#ff826e" r="2"/></g><g><path d="m56 50c3.31 0 6 2.69 6 6s-2.69 6-6 6-6-2.69-6-6 2.69-6 6-6z" fill="#ff826e"/></g><g><circle cx="8" cy="50" fill="#fc6e51" r="2"/></g><g><circle cx="56" cy="56" fill="#fc6e51" r="2"/></g><g><path d="m44.49 18c-2.93-3.66-7.43-6-12.49-6s-9.56 2.34-12.49 6c-2.2 2.74-3.51 6.22-3.51 10 0 3.62 1.2 7.15 3.23 10 .89 1.26 1.94 2.38 3.12 3.32 1.46 1.16 2.39 2.85 2.6 4.68h14.1c.21-1.83 1.14-3.52 2.6-4.68 1.49-1.19 2.77-2.66 3.78-4.32 1.63-2.66 2.57-5.8 2.57-9 0-3.78-1.31-7.26-3.51-10z" fill="#ffeaa7"/></g><g><path d="m39.33 31.78c.49.74.74 1.64.65 2.61-.2 2.08-2.06 3.61-4.15 3.61h-.02c-1 0-1.81.81-1.81 1.81v6.19h-4v-6.19c0-1-.81-1.81-1.81-1.81-1.98 0-3.81-1.35-4.13-3.31-.18-1.09.08-2.12.63-2.93-1.56-.54-2.69-2.01-2.69-3.76s1.12-3.23 2.68-3.78c-.43-.63-.68-1.4-.68-2.22 0-2.21 1.79-4 4-4s4 1.79 4 4c0-2.21 1.79-4 4-4s4 1.79 4 4c0 .83-.25 1.6-.69 2.24 1.56.54 2.69 2.01 2.69 3.76s-1.12 3.22-2.67 3.78z" fill="#dfb28b"/></g></g><g><path d="m53 56c0 1.654 1.346 3 3 3s3-1.346 3-3-1.346-3-3-3-3 1.346-3 3zm4 0c0 .552-.449 1-1 1s-1-.448-1-1 .449-1 1-1 1 .448 1 1z"/><path d="m5 50c0 1.654 1.346 3 3 3s3-1.346 3-3-1.346-3-3-3-3 1.346-3 3zm4 0c0 .552-.449 1-1 1s-1-.448-1-1 .449-1 1-1 1 .448 1 1z"/><path d="m57.184 29c.414 1.161 1.514 2 2.816 2 1.654 0 3-1.346 3-3s-1.346-3-3-3c-1.302 0-2.402.839-2.816 2h-8.235c-.172-2.927-1.081-5.653-2.554-8h3.776c.801 0 1.555-.312 2.122-.879l2.954-2.954c.791.524 1.736.833 2.753.833 2.757 0 5-2.243 5-5s-2.243-5-5-5-5 2.243-5 5c0 1.017.309 1.962.833 2.753l-2.954 2.954c-.189.189-.441.293-.708.293h-5.233c-2.917-3.426-7.165-5.67-11.938-5.949v-4.235c1.161-.414 2-1.514 2-2.816 0-1.654-1.346-3-3-3s-3 1.346-3 3c0 1.302.839 2.402 2 2.816v4.235c-4.773.28-9.021 2.523-11.938 5.949h-9.062c-.551 0-1-.449-1-1v-3.101c2.279-.465 4-2.484 4-4.899 0-2.757-2.243-5-5-5s-5 2.243-5 5c0 2.414 1.721 4.434 4 4.899v3.101c0 1.654 1.346 3 3 3h7.604c-1.473 2.347-2.382 5.073-2.554 8h-8.234c-.414-1.161-1.514-2-2.816-2-1.654 0-3 1.346-3 3s1.346 3 3 3c1.302 0 2.402-.839 2.816-2h8.214c.164 2.799 1.01 5.563 2.391 8h-7.421c-1.654 0-3 1.346-3 3v3.08c-3.387.488-6 3.401-6 6.92 0 3.859 3.14 7 7 7s7-3.141 7-7c0-3.519-2.613-6.432-6-6.92v-3.08c0-.552.449-1 1-1h8.731c.871 1.157 1.873 2.207 2.993 3.1.956.761 1.642 1.767 1.998 2.9h-.722c-1.654 0-3 1.346-3 3 0 .771.301 1.468.78 2-.48.532-.78 1.229-.78 2 0 1.654 1.346 3 3 3h1c0 4.411 3.589 8 8 8s8-3.589 8-8h1c1.654 0 3-1.346 3-3 0-.771-.301-1.468-.78-2 .48-.532.78-1.229.78-2 0-1.654-1.346-3-3-3h-.722c.356-1.134 1.042-2.139 1.998-2.9 1.435-1.143 2.677-2.541 3.694-4.1h8.03c.551 0 1 .448 1 1v10.08c-3.387.488-6 3.401-6 6.92 0 3.859 3.14 7 7 7s7-3.141 7-7c0-3.519-2.613-6.432-6-6.92v-10.08c0-1.654-1.346-3-3-3h-6.891c1.067-2.182 1.72-4.577 1.862-7zm.816-21c1.654 0 3 1.346 3 3s-1.346 3-3 3-3-1.346-3-3 1.346-3 3-3zm-53 0c0-1.654 1.346-3 3-3s3 1.346 3 3-1.346 3-3 3-3-1.346-3-3zm8 42c0 2.757-2.243 5-5 5s-5-2.243-5-5 2.243-5 5-5 5 2.243 5 5zm48 6c0 2.757-2.243 5-5 5s-5-2.243-5-5 2.243-5 5-5 5 2.243 5 5zm-1-29c.551 0 1 .449 1 1s-.449 1-1 1-1-.449-1-1 .449-1 1-1zm-28-24c.551 0 1 .449 1 1s-.449 1-1 1-1-.449-1-1 .449-1 1-1zm-28 26c-.551 0-1-.449-1-1s.449-1 1-1 1 .449 1 1-.449 1-1 1zm28 32c-3.309 0-6-2.691-6-6h12c0 3.309-2.691 6-6 6zm9-8h-18c-.551 0-1-.448-1-1s.449-1 1-1h18c.551 0 1 .448 1 1s-.449 1-1 1zm1-5c0 .552-.449 1-1 1h-18c-.551 0-1-.448-1-1s.449-1 1-1h18c.551 0 1 .448 1 1zm-13.807-11c-1.56 0-2.913-1.064-3.149-2.477-.13-.78.036-1.562.47-2.202l.728-1.076-1.226-.429c-1.206-.421-2.016-1.553-2.016-2.816 0-1.046.55-1.994 1.41-2.534.91.942 2.18 1.534 3.59 1.534v-2c-1.654 0-3-1.346-3-3s1.346-3 3-3 3 1.346 3 3h2c0-1.654 1.346-3 3-3s3 1.346 3 3c0 .602-.178 1.182-.514 1.679l-.728 1.076 1.226.429c1.206.421 2.016 1.553 2.016 2.816 0 1.047-.551 1.996-1.413 2.536-.94-.971-2.233-1.536-3.587-1.536v2c.843 0 1.652.358 2.22.982.576.633.848 1.455.766 2.315-.145 1.516-1.532 2.703-3.179 2.703-1.548 0-2.807 1.26-2.807 2.808v5.192h-2v-5.192c0-1.548-1.259-2.808-2.807-2.808zm12.837 3.535c-1.439 1.145-2.417 2.708-2.821 4.465h-3.209v-5.192c0-.446.362-.808.828-.808 2.646 0 4.907-1.982 5.149-4.513.074-.779-.052-1.549-.325-2.265 1.433-.901 2.348-2.48 2.348-4.222 0-1.728-.903-3.308-2.331-4.21.218-.567.331-1.172.331-1.79 0-2.757-2.243-5-5-5-1.634 0-3.087.788-4 2.003-.913-1.215-2.366-2.003-4-2.003-2.757 0-5 2.243-5 5 0 .629.13 1.226.343 1.781-1.43.902-2.343 2.479-2.343 4.219 0 1.728.903 3.308 2.331 4.21-.318.83-.411 1.739-.259 2.644.394 2.363 2.595 4.146 5.121 4.146.445 0 .807.362.807.808v5.192h-3.209c-.404-1.756-1.382-3.319-2.821-4.465-3.682-2.932-5.97-7.735-5.97-12.535 0-8.271 6.729-15 15-15s15 6.729 15 15c0 4.8-2.288 9.603-5.97 12.535z"/></g></g></svg>