<svg id="Capa_1" enable-background="new 0 0 512 512" height="512" viewBox="0 0 512 512" width="512" xmlns="http://www.w3.org/2000/svg"><g><path d="m464 96v416h-416v-512h320l28.75 66.21z" fill="#ecf2ff"/><path d="m464 96v416h-208v-512h112l28.75 66.21z" fill="#dae6fe"/><path d="m368 0v96h96z" fill="#c0d7fe"/><path d="m16 219.3h480v224h-480z" fill="#00ce6d"/><path d="m256 219.3h240v224h-240z" fill="#009a86"/><path d="m120.5 150.62h271v30h-271z" fill="#dae6fe"/><path d="m120.5 90.38h180.62v30h-180.62z" fill="#dae6fe"/><path d="m256 90.38h45.12v30h-45.12z" fill="#c0d7fe"/><path d="m256 150.62h135.5v30h-135.5z" fill="#c0d7fe"/><path d="m194.75 391.548c-24.882 0-45.125-20.243-45.125-45.125h30c0 8.34 6.785 15.125 15.125 15.125s15.125-6.785 15.125-15.125v-75.346h30v75.346c0 24.882-20.243 45.125-45.125 45.125z" fill="#ecf2ff"/><path d="m316.782 391.498h-43.657v-30h43.657c4.187 0 7.593-3.406 7.593-7.593s-3.406-7.593-7.593-7.593h-15.048c-20.738 0-37.609-16.871-37.609-37.609 0-10.052 3.916-19.5 11.026-26.605 7.103-7.096 16.542-11.004 26.581-11.004h.033l43.62.031-.021 30-43.622-.031c-.002 0-.005 0-.007 0-2.742 0-4.547 1.395-5.38 2.226-.833.833-2.23 2.639-2.23 5.383 0 4.195 3.413 7.609 7.609 7.609h15.048c20.729 0 37.593 16.864 37.593 37.593s-16.864 37.593-37.593 37.593z" fill="#dae6fe"/></g></svg>