<svg id="Capa_1" enable-background="new 0 0 512 512" height="512" viewBox="0 0 512 512" width="512" xmlns="http://www.w3.org/2000/svg"><g><path d="m435.283 76.066h-359c-8.284 0-15 6.715-15 14.998v405.938c0 8.283 6.716 14.998 15 14.998h359c8.284 0 15-6.715 15-14.998v-405.938c0-8.283-6.716-14.998-15-14.998z" fill="#fedd33"/><path d="m450.28 91.06v405.94c0 8.29-6.71 15-15 15h-179.28v-435.93h179.28c8.29 0 15 6.71 15 14.99z" fill="#febb33"/><path d="m276.133 128.178-25.34 44.253c-4.12 7.199-13.29 9.679-20.47 5.569-7.19-4.119-9.68-13.278-5.57-20.467l25.34-44.263z" fill="#3f5379"/><path d="m276.13 128.18c-32.884 57.425-23.656 41.309-25.34 44.25-3.95 6.9-12.54 9.47-19.57 6.05 1.37-2.393-7.753 13.541 32.78-57.25z" fill="#29406b"/><path d="m450.717 361.023h-135.434c-8.284 0-15 6.715-15 14.998v135.979z" fill="#fedd33"/><path d="m135.783 241.041h239c8.284 0 15-6.715 15-14.998s-6.716-14.998-15-14.998h-239c-8.284 0-15 6.715-15 14.998s6.716 14.998 15 14.998z" fill="#febb33"/><path d="m389.78 226.04c0 8.29-6.71 15-15 15h-118.78v-29.99h118.78c8.29 0 15 6.71 15 14.99z" fill="#f19637"/><path d="m374.783 271.036h-239c-8.284 0-15 6.715-15 14.998s6.716 14.998 15 14.998h239c8.284 0 15-6.715 15-14.998s-6.716-14.998-15-14.998z" fill="#febb33"/><path d="m389.78 286.03c0 8.29-6.71 15-15 15h-118.78v-29.99h118.78c8.29 0 15 6.71 15 14.99z" fill="#f19637"/><path d="m240.783 331.027h-105c-8.284 0-15 6.715-15 14.998s6.716 14.998 15 14.998h105c8.284 0 15-6.715 15-14.998s-6.716-14.998-15-14.998z" fill="#febb33"/><path d="m240.783 391.018h-105c-8.284 0-15 6.715-15 14.998s6.716 14.998 15 14.998h105c8.284 0 15-6.715 15-14.998s-6.716-14.998-15-14.998z" fill="#febb33"/><path d="m353.22 39.808-65.958-37.749c-13.506-7.728-28.477 7.842-20.115 21.048l-15.028 26.25-33.011 29.086c-7.705 6.789-6.452 19.166 2.466 24.268l78.109 44.703c8.794 5.035 19.979.064 22.116-9.863l9.253-43.021 14.53-26.712c15.511.133 20.961-20.385 7.638-28.01z" fill="#d84158"/><path d="m345.58 67.82-14.53 26.71-9.25 43.02c-2.14 9.93-13.32 14.9-22.12 9.87-2.801-1.603 11.868 6.794-38.17-21.85 67.682-118.231 58.805-102.723 59.61-104.13l32.1 18.37c13.32 7.62 7.87 28.14-7.64 28.01z" fill="#b2243b"/></g></svg>