<svg height="512" viewBox="0 0 128 128" width="512" xmlns="http://www.w3.org/2000/svg"><g id="Circle_Grid" data-name="Circle Grid"><circle cx="64" cy="64" fill="#69b0ee" r="64"/></g><g id="icon"><path d="m23 40.232v57.915a3.526 3.526 0 0 0 3.526 3.526h74.949a3.526 3.526 0 0 0 3.525-3.526v-57.915z" fill="#eeefee"/><path d="m101.474 26.328h-74.948a3.526 3.526 0 0 0 -3.526 3.525v13.8h82v-13.8a3.526 3.526 0 0 0 -3.526-3.525z" fill="#62667c"/><circle cx="72.981" cy="34.913" fill="#2cbfae" r="3.174"/><circle cx="84.205" cy="34.913" fill="#f6c863" r="3.174"/><circle cx="95.428" cy="35.063" fill="#ef5261" r="3.174"/><g fill="#62667c"><path d="m54.095 68.56-8.4 4.93 8.4 4.93v5.39l-14.85-8.27v-4.1l14.85-8.27z"/><path d="m70.233 61.459-7.365 25.465h-4.893l7.365-25.465z"/><path d="m88.755 71.44v4.1l-14.85 8.27v-5.39l8.4-4.93-8.4-4.93v-5.39z"/></g></g></svg>